# Created by 3DAce v2.72


g
v -1.056396 0.396686 1.713698
v -1.056396 -0.388354 1.713698
v 1.056396 0.396686 1.713698
v 1.056396 -0.388354 1.713698
v 1.056396 0.396686 -1.713698
v 1.056396 -0.388354 -1.713698
v -1.056396 0.396686 -1.713698
v -1.056396 -0.388354 -1.713698
v -0.737683 0.512276 1.175002
v 0.737683 0.512276 1.175002
v 0.737683 0.512276 -1.218358
v -0.737683 0.512276 -1.218358
v -0.681103 0.257240 1.811390
v -0.681103 -0.248909 1.811390
v 0.681103 0.257240 1.811526
v 0.681103 -0.248909 1.811473
v 1.153500 0.295170 1.270487
v 1.153500 -0.286838 1.270487
v 1.153500 0.295170 -1.270487
v 1.153500 -0.286838 -1.270487
v -1.161877 0.281011 1.208676
v -1.161877 -0.272680 1.208676
v -1.161877 0.281011 -1.208676
v -1.161877 -0.272680 -1.208676
v 0.745079 0.281011 -1.795932
v 0.745079 -0.272680 -1.795932
v -0.745079 0.281011 -1.795932
v -0.745079 -0.272680 -1.795932
v -0.748804 -0.527689 1.214719
v 0.748804 -0.527689 1.214719
v 0.748804 -0.527689 -1.214719
v -0.748804 -0.527689 -1.214719
v 0.009179 0.014946 0.483962
v 0.009179 -0.692966 0.483962
v 0.493142 0.014946 -0.000001
v 0.493142 -0.692966 -0.000001
v 0.009181 0.014946 -0.483962
v 0.009181 -0.692966 -0.483962
v -0.474781 0.014946 0.000000
v -0.474781 -0.692966 0.000000
v 0.009179 -0.566909 0.483962
v 0.493142 -0.566909 -0.000001
v 0.009181 -0.566909 -0.483962
v -0.474781 -0.566909 0.000000
v 0.009179 -0.614651 0.483962
v 0.493142 -0.614651 -0.000001
v 0.009181 -0.614651 -0.483962
v -0.474781 -0.614651 0.000000
v 0.009179 -0.657323 0.483962
v 0.493142 -0.656280 -0.000001
v 0.009181 -0.656280 -0.483962
v -0.474781 -0.657323 0.000000
# 52 vertices

vt 0.375150 0.988190
vt 0.011810 0.988190
vt 0.066620 0.903010
vt 0.320340 0.903010
vt 0.375150 0.398770
vt 0.375150 0.988190
vt 0.320340 0.903010
vt 0.320340 0.491410
vt 0.011810 0.398770
vt 0.375150 0.398770
vt 0.320340 0.491410
vt 0.066620 0.491410
vt 0.011810 0.988190
vt 0.011810 0.398770
vt 0.066620 0.491410
vt 0.066620 0.903010
vt 0.066620 0.491410
vt 0.320340 0.491410
vt 0.320340 0.903010
vt 0.066620 0.903010
vt 0.988190 0.375150
vt 0.624850 0.375150
vt 0.689390 0.351170
vt 0.923650 0.351170
vt 0.988190 0.240150
vt 0.988190 0.375150
vt 0.923650 0.351170
vt 0.923650 0.264130
vt 0.624850 0.240150
vt 0.988190 0.240150
vt 0.923650 0.264130
vt 0.689390 0.264130
vt 0.624850 0.375150
vt 0.624850 0.240150
vt 0.689390 0.264130
vt 0.689390 0.351170
vt 0.689390 0.264130
vt 0.923650 0.264130
vt 0.923650 0.351170
vt 0.689390 0.351170
vt 0.601230 0.375150
vt 0.011810 0.375150
vt 0.088030 0.357700
vt 0.525010 0.357700
vt 0.601230 0.240150
vt 0.601230 0.375150
vt 0.525010 0.357700
vt 0.525010 0.257600
vt 0.011810 0.240150
vt 0.601230 0.240150
vt 0.525010 0.257600
vt 0.088030 0.257600
vt 0.011810 0.375150
vt 0.011810 0.240150
vt 0.088030 0.257600
vt 0.088030 0.357700
vt 0.088030 0.257600
vt 0.525010 0.257600
vt 0.525010 0.357700
vt 0.088030 0.357700
vt 0.601230 0.216530
vt 0.011810 0.216530
vt 0.098660 0.196640
vt 0.514380 0.196640
vt 0.601230 0.081530
vt 0.601230 0.216530
vt 0.514380 0.196640
vt 0.514380 0.101420
vt 0.011810 0.081530
vt 0.601230 0.081530
vt 0.514380 0.101420
vt 0.098660 0.101420
vt 0.011810 0.216530
vt 0.011810 0.081530
vt 0.098660 0.101420
vt 0.098660 0.196640
vt 0.098660 0.101420
vt 0.514380 0.101420
vt 0.514380 0.196640
vt 0.098660 0.196640
vt 0.988190 0.216530
vt 0.624850 0.216530
vt 0.678390 0.196640
vt 0.934650 0.196640
vt 0.988190 0.081530
vt 0.988190 0.216530
vt 0.934650 0.196640
vt 0.934650 0.101420
vt 0.624850 0.081530
vt 0.988190 0.081530
vt 0.934650 0.101420
vt 0.678390 0.101420
vt 0.624850 0.216530
vt 0.624850 0.081530
vt 0.678390 0.101420
vt 0.678390 0.196640
vt 0.678390 0.101420
vt 0.934650 0.101420
vt 0.934650 0.196640
vt 0.678390 0.196640
vt 0.762110 0.988190
vt 0.398770 0.988190
vt 0.451670 0.902380
vt 0.709220 0.902380
vt 0.762110 0.398770
vt 0.762110 0.988190
vt 0.709220 0.902380
vt 0.709220 0.484580
vt 0.398770 0.398770
vt 0.762110 0.398770
vt 0.709220 0.484580
vt 0.451670 0.484580
vt 0.398770 0.988190
vt 0.398770 0.398770
vt 0.451670 0.484580
vt 0.451670 0.902380
vt 0.451670 0.484580
vt 0.709220 0.484580
vt 0.709220 0.902380
vt 0.451670 0.902380
vt 0.497160 0.143740
vt 0.881540 0.139600
vt 0.869130 0.352330
vt 0.499220 0.352330
vt 0.474410 0.110190
vt 0.896010 0.110190
vt 0.891880 0.376690
vt 0.472340 0.376690
vt 0.384750 0.991360
vt 0.008640 0.991360
vt 0.008640 0.939800
vt 0.384750 0.939800
vt 0.384750 0.241360
vt 0.008640 0.241360
vt 0.008640 0.189800
vt 0.384750 0.189800
vt 0.384750 0.741360
vt 0.008640 0.741360
vt 0.008640 0.689800
vt 0.384750 0.689800
vt 0.384750 0.491360
vt 0.008640 0.491360
vt 0.008640 0.439800
vt 0.384750 0.439800
vt 0.384750 0.939800
vt 0.008640 0.939800
vt 0.008640 0.871190
vt 0.384750 0.871190
vt 0.384750 0.189800
vt 0.008640 0.189800
vt 0.008640 0.121190
vt 0.384750 0.121190
vt 0.384750 0.689800
vt 0.008640 0.689800
vt 0.008640 0.621190
vt 0.384750 0.621190
vt 0.384750 0.439800
vt 0.008640 0.439800
vt 0.008640 0.371190
vt 0.384750 0.371190
vt 0.008640 0.809860
vt 0.008640 0.758640
vt 0.384750 0.758640
vt 0.384750 0.811360
vt 0.384750 0.871190
vt 0.008640 0.871190
vt 0.008640 0.809860
vt 0.384750 0.811360
vt 0.008640 0.061360
vt 0.008640 0.008640
vt 0.384750 0.008640
vt 0.384750 0.061360
vt 0.384750 0.121190
vt 0.008640 0.121190
vt 0.008640 0.061360
vt 0.384750 0.061360
vt 0.008640 0.561360
vt 0.008640 0.508640
vt 0.384750 0.508640
vt 0.384750 0.559860
vt 0.384750 0.621190
vt 0.008640 0.621190
vt 0.008640 0.561360
vt 0.384750 0.559860
vt 0.008640 0.309860
vt 0.008640 0.258640
vt 0.384750 0.258640
vt 0.384750 0.309860
vt 0.384750 0.371190
vt 0.008640 0.371190
vt 0.008640 0.309860
vt 0.384750 0.309860
# 192 texture vertices

vn 0.302538 0.905854 -0.296479
vn -0.308115 0.903672 -0.297393
vn -0.115866 0.990258 -0.077228
vn 0.115866 0.990258 -0.077228
vn 0.302993 0.906814 0.293059
vn 0.302538 0.905854 -0.296479
vn 0.115866 0.990258 -0.077228
vn 0.115765 0.990719 0.071235
vn -0.308602 0.904627 0.293962
vn 0.302993 0.906814 0.293059
vn 0.115765 0.990719 0.071235
vn -0.115765 0.990719 0.071235
vn -0.308115 0.903672 -0.297393
vn -0.308602 0.904627 0.293962
vn -0.115765 0.990719 0.071235
vn -0.115866 0.990258 -0.077228
vn -0.115765 0.990719 0.071235
vn 0.115765 0.990719 0.071235
vn 0.115866 0.990258 -0.077228
vn -0.115866 0.990258 -0.077228
vn 0.182636 0.767291 0.614742
vn -0.182571 0.767296 0.614756
vn -0.088240 0.200934 0.975622
vn 0.088256 0.200922 0.975624
vn 0.133186 -0.303184 0.943579
vn 0.133180 0.303126 0.943598
vn 0.088256 0.200922 0.975624
vn 0.088260 -0.200998 0.975608
vn -0.203545 -0.749795 0.629585
vn 0.203614 -0.749801 0.629555
vn 0.088260 -0.200998 0.975608
vn -0.088234 -0.200976 0.975614
vn -0.133070 0.303144 0.943608
vn -0.133062 -0.303154 0.943606
vn -0.088234 -0.200976 0.975614
vn -0.088240 0.200934 0.975622
vn -0.088234 -0.200976 0.975614
vn 0.088260 -0.200998 0.975608
vn 0.088256 0.200922 0.975624
vn -0.088240 0.200934 0.975622
vn 0.611198 0.780362 -0.132179
vn 0.611053 0.781348 0.126922
vn 0.965901 0.247330 0.076577
vn 0.965901 0.247330 -0.076577
vn 0.920072 -0.374224 -0.115866
vn 0.920072 0.374224 -0.115866
vn 0.965901 0.247330 -0.076577
vn 0.965901 -0.247330 -0.076577
vn 0.629009 -0.763976 0.143834
vn 0.629009 -0.763976 -0.143834
vn 0.965901 -0.247330 -0.076577
vn 0.965901 -0.247330 0.076577
vn 0.920072 0.374224 0.115866
vn 0.920072 -0.374224 0.115866
vn 0.965901 -0.247330 0.076577
vn 0.965901 0.247330 0.076577
vn 0.965901 -0.247330 0.076577
vn 0.965901 -0.247330 -0.076577
vn 0.965901 0.247330 -0.076577
vn 0.965901 0.247330 0.076577
vn -0.617194 0.776949 0.124189
vn -0.617346 0.775968 -0.129453
vn -0.968038 0.239997 -0.072823
vn -0.968038 0.239997 0.072823
vn -0.925282 -0.362941 0.110127
vn -0.925282 0.362939 0.110127
vn -0.968038 0.239997 0.072823
vn -0.968038 -0.239998 0.072823
vn -0.635045 -0.759477 -0.141114
vn -0.635045 -0.759477 0.141114
vn -0.968038 -0.239998 0.072823
vn -0.968038 -0.239998 -0.072823
vn -0.925282 0.362939 -0.110127
vn -0.925282 -0.362941 -0.110127
vn -0.968038 -0.239998 -0.072823
vn -0.968038 0.239997 -0.072823
vn -0.968038 -0.239998 -0.072823
vn -0.968038 -0.239998 0.072823
vn -0.968038 0.239997 0.072823
vn -0.968038 0.239997 -0.072823
vn -0.183086 0.765500 -0.616838
vn 0.183086 0.765500 -0.616838
vn 0.089515 0.203087 -0.975060
vn -0.089515 0.203087 -0.975060
vn -0.135053 -0.306402 -0.942273
vn -0.135053 0.306400 -0.942274
vn -0.089515 0.203087 -0.975060
vn -0.089515 -0.203088 -0.975060
vn 0.204489 -0.751044 -0.627787
vn -0.204489 -0.751044 -0.627787
vn -0.089515 -0.203088 -0.975060
vn 0.089515 -0.203088 -0.975060
vn 0.135053 0.306400 -0.942274
vn 0.135053 -0.306402 -0.942273
vn 0.089515 -0.203088 -0.975060
vn 0.089515 0.203087 -0.975060
vn 0.089515 -0.203088 -0.975060
vn -0.089515 -0.203088 -0.975060
vn -0.089515 0.203087 -0.975060
vn 0.089515 0.203087 -0.975060
vn 0.323337 -0.894124 0.309830
vn -0.328946 -0.891761 0.310736
vn -0.141506 -0.985631 0.092234
vn 0.141506 -0.985631 0.092234
vn 0.323006 -0.894733 -0.308416
vn 0.323337 -0.894124 0.309830
vn 0.141506 -0.985631 0.092234
vn 0.141506 -0.985631 -0.092234
vn -0.328597 -0.892382 -0.309320
vn 0.323006 -0.894733 -0.308416
vn 0.141506 -0.985631 -0.092234
vn -0.141506 -0.985631 -0.092234
vn -0.328946 -0.891761 0.310736
vn -0.328597 -0.892382 -0.309320
vn -0.141506 -0.985631 -0.092234
vn -0.141506 -0.985631 0.092234
vn -0.141506 -0.985631 -0.092234
vn 0.141506 -0.985631 -0.092234
vn 0.141506 -0.985631 0.092234
vn -0.141506 -0.985631 0.092234
vn 0.000000 1.000000 0.000000
vn 0.000000 1.000000 0.000000
vn 0.000000 1.000000 0.000000
vn 0.000000 1.000000 0.000000
vn 0.000000 -1.000000 0.000000
vn 0.000000 -1.000000 0.000000
vn 0.000000 -1.000000 0.000000
vn 0.000000 -1.000000 0.000000
vn 0.707107 0.000000 0.707107
vn 0.707107 0.000000 0.707107
vn 0.707107 0.000000 0.707107
vn 0.707107 0.000000 0.707107
vn 0.707107 0.000000 -0.707107
vn 0.707107 0.000000 -0.707107
vn 0.707107 0.000000 -0.707107
vn 0.707107 0.000000 -0.707107
vn -0.707107 0.000000 -0.707107
vn -0.707107 0.000000 -0.707107
vn -0.707107 0.000000 -0.707107
vn -0.707107 0.000000 -0.707107
vn -0.707108 0.000000 0.707105
vn -0.707108 0.000000 0.707105
vn -0.707108 0.000000 0.707105
vn -0.707108 0.000000 0.707105
vn 0.707107 0.000000 0.707107
vn 0.707107 0.000000 0.707107
vn 0.707107 0.000000 0.707107
vn 0.707107 0.000000 0.707107
vn 0.707107 0.000000 -0.707107
vn 0.707107 0.000000 -0.707107
vn 0.707107 0.000000 -0.707107
vn 0.707107 0.000000 -0.707107
vn -0.707107 0.000000 -0.707107
vn -0.707107 0.000000 -0.707107
vn -0.707107 0.000000 -0.707107
vn -0.707107 0.000000 -0.707107
vn -0.707108 0.000000 0.707105
vn -0.707108 0.000000 0.707105
vn -0.707108 0.000000 0.707105
vn -0.707108 0.000000 0.707105
vn 0.707107 0.000000 0.707107
vn 0.707107 0.000000 0.707107
vn 0.707107 0.000000 0.707107
vn 0.707107 0.000000 0.707107
vn 0.707107 0.000000 0.707107
vn 0.707107 0.000000 0.707107
vn 0.707107 0.000000 0.707107
vn 0.707107 0.000000 0.707107
vn 0.707107 0.000000 -0.707107
vn 0.707107 0.000000 -0.707107
vn 0.707107 0.000000 -0.707107
vn 0.707107 0.000000 -0.707107
vn 0.707107 0.000000 -0.707107
vn 0.707107 0.000000 -0.707107
vn 0.707107 0.000000 -0.707107
vn 0.707107 0.000000 -0.707107
vn -0.707107 0.000000 -0.707107
vn -0.707107 0.000000 -0.707107
vn -0.707107 0.000000 -0.707107
vn -0.707107 0.000000 -0.707107
vn -0.707107 0.000000 -0.707107
vn -0.707107 0.000000 -0.707107
vn -0.707107 0.000000 -0.707107
vn -0.707107 0.000000 -0.707107
vn -0.707108 0.000000 0.707105
vn -0.707108 0.000000 0.707105
vn -0.707108 0.000000 0.707105
vn -0.707108 0.000000 0.707105
vn -0.707108 0.000000 0.707105
vn -0.707108 0.000000 0.707105
vn -0.707108 0.000000 0.707105
vn -0.707108 0.000000 0.707105
# 192 vertex normals

g tex
f 5/1/1 7/2/2 12/3/3 11/4/4
f 3/5/5 5/6/6 11/7/7 10/8/8
f 1/9/9 3/10/10 10/11/11 9/12/12
f 7/13/13 1/14/14 9/15/15 12/16/16
f 9/17/17 10/18/18 11/19/19 12/20/20
f 3/21/21 1/22/22 13/23/23 15/24/24
f 4/25/25 3/26/26 15/27/27 16/28/28
f 2/29/29 4/30/30 16/31/31 14/32/32
f 1/33/33 2/34/34 14/35/35 13/36/36
f 14/37/37 16/38/38 15/39/39 13/40/40
f 5/41/41 3/42/42 17/43/43 19/44/44
f 6/45/45 5/46/46 19/47/47 20/48/48
f 4/49/49 6/50/50 20/51/51 18/52/52
f 3/53/53 4/54/54 18/55/55 17/56/56
f 18/57/57 20/58/58 19/59/59 17/60/60
f 1/61/61 7/62/62 23/63/63 21/64/64
f 2/65/65 1/66/66 21/67/67 22/68/68
f 8/69/69 2/70/70 22/71/71 24/72/72
f 7/73/73 8/74/74 24/75/75 23/76/76
f 24/77/77 22/78/78 21/79/79 23/80/80
f 7/81/81 5/82/82 25/83/83 27/84/84
f 8/85/85 7/86/86 27/87/87 28/88/88
f 6/89/89 8/90/90 28/91/91 26/92/92
f 5/93/93 6/94/94 26/95/95 25/96/96
f 26/97/97 28/98/98 27/99/99 25/100/100
f 4/101/101 2/102/102 29/103/103 30/104/104
f 6/105/105 4/106/106 30/107/107 31/108/108
f 8/109/109 6/110/110 31/111/111 32/112/112
f 2/113/113 8/114/114 32/115/115 29/116/116
f 32/117/117 31/118/118 30/119/119 29/120/120
f 33/121/121 35/122/122 37/123/123 39/124/124
f 40/125/125 38/126/126 36/127/127 34/128/128
f 35/129/129 33/130/130 41/131/131 42/132/132
f 37/133/133 35/134/134 42/135/135 43/136/136
f 39/137/137 37/138/138 43/139/139 44/140/140
f 33/141/141 39/142/142 44/143/143 41/144/144
f 42/145/145 41/146/146 45/147/147 46/148/148
f 43/149/149 42/150/150 46/151/151 47/152/152
f 44/153/153 43/154/154 47/155/155 48/156/156
f 41/157/157 44/158/158 48/159/159 45/160/160
f 49/161/161 34/162/162 36/163/163 50/164/164
f 46/165/165 45/166/166 49/167/167 50/168/168
f 50/169/169 36/170/170 38/171/171 51/172/172
f 47/173/173 46/174/174 50/175/175 51/176/176
f 51/177/177 38/178/178 40/179/179 52/180/180
f 48/181/181 47/182/182 51/183/183 52/184/184
f 52/185/185 40/186/186 34/187/187 49/188/188
f 45/189/189 48/190/190 52/191/191 49/192/192
# 48 elements

